<svg width="514" height="297" viewBox="0 0 514 297" fill="none" xmlns="http://www.w3.org/2000/svg">
<g clip-path="url(#clip0)">
<g clip-path="url(#clip1)">
<path d="M232.24 229.981C249.397 241.323 267.19 252.603 287.703 258.883C309.488 265.037 333.878 265.018 356.365 258.674C378.853 252.331 399.552 240.835 416.671 225.547C400.89 228.275 383.843 224.616 370.788 215.832C401.88 218.708 434.024 206.093 456.349 184.968C478.673 163.844 492.045 136.493 500.215 108.467C486.275 123.444 462.287 127.567 441.424 124.282C420.562 120.996 401.67 111.599 382.256 103.437C362.843 95.275 342.851 87.7611 321.812 89.2278C332.104 82.8938 342.339 75.9733 354.075 71.2737C365.811 66.574 378.355 63.5709 390.723 65.32C375.702 56.136 361.141 51.6419 343.051 50.4528C324.962 49.2637 306.581 51.6539 288.95 55.1547C269.47 59.4286 249.583 66.1093 234.028 77.6932C215.465 91.3469 203.313 111.476 197.692 132.742C194.254 169.775 203.476 204.978 232.24 229.981Z" fill="#F3705A"/>
<path d="M204.356 187.727C179.305 141.645 236.332 88.1226 286.599 109.838C287.235 109.776 287.292 110.362 287.928 110.3C261.63 110.506 243.13 118.235 233.411 130.432C248.096 123.076 266.301 125.438 282.248 130.98C297.56 136.584 311.887 145.244 326.621 151.497C341.99 157.687 359.095 161.932 375.281 156.797C365.214 171.987 349.022 183.633 330.986 189.541C312.949 195.449 292.374 195.095 274.461 189.153C282.315 197.263 294.391 202.592 306.529 201.996C295.366 212.559 280.045 219.976 264.092 220.946C239.296 223.372 215.265 207.375 204.356 187.727Z" fill="#FFD15C"/>
</g>
<path d="M32.0039 192V142.586H46.0664V129.988H3.48828V142.586H17.5508V192H32.0039ZM71.0664 154.891C71.9128 155.021 72.3685 155.477 72.4336 156.258V179.891C72.3034 180.737 71.8477 181.193 71.0664 181.258H62.8633C62.0169 181.128 61.5612 180.672 61.4961 179.891V156.258C61.6263 155.411 62.082 154.956 62.8633 154.891H71.0664ZM47.5312 178.328C47.5312 185.555 50.2331 190.047 55.6367 191.805C57.9805 192.586 60.8125 192.977 64.1328 192.977H69.7969C78.1953 192.977 83.3711 190.438 85.3242 185.359C86.0404 183.406 86.3984 181.062 86.3984 178.328V157.82C86.3984 150.594 83.6966 146.102 78.293 144.344C76.0143 143.562 73.1823 143.172 69.7969 143.172H64.1328C55.7344 143.172 50.5586 145.711 48.6055 150.789C47.8893 152.742 47.5312 155.086 47.5312 157.82V178.328ZM118.234 143.172C112.505 143.302 109.25 146.167 108.469 151.766L107.492 144.148H94.8945L95.0898 192H108.957L108.762 156.746C108.892 155.9 109.348 155.444 110.129 155.379H120.676V143.172H118.234ZM154.27 192.977V181.258H138.742C137.896 181.128 137.44 180.672 137.375 179.891V156.258C137.505 155.411 137.961 154.956 138.742 154.891H154.27V143.172H140.012C131.613 143.172 126.438 145.711 124.484 150.789C123.768 152.742 123.41 155.086 123.41 157.82V178.328C123.41 185.555 126.112 190.047 131.516 191.805C133.859 192.586 136.691 192.977 140.012 192.977H154.27ZM183.273 143.172C178.13 143.237 174.973 145.548 173.801 150.105V126.082H159.934L160.129 192H173.996L173.801 155.77C173.931 154.923 174.387 154.467 175.168 154.402H183.273C184.12 154.533 184.576 154.988 184.641 155.77V192H198.508V155.379C198.508 149.129 196.262 145.32 191.77 143.953C190.077 143.432 188.091 143.172 185.812 143.172H183.273Z" fill="#C70000"/>
<path d="M254.562 176.375V172.664C254.497 166.74 252.056 162.703 247.238 160.555C251.079 158.211 253.033 154.5 253.098 149.422V145.613C253.098 137.931 249.842 132.951 243.332 130.672C240.858 129.826 238.091 129.435 235.031 129.5L208.762 129.988V192L236.496 192.488C245.35 192.618 250.982 189.526 253.391 183.211C254.172 181.128 254.562 178.849 254.562 176.375ZM238.547 166.414C239.393 166.544 239.849 167 239.914 167.781V178.816C239.784 179.663 239.328 180.118 238.547 180.184H223.215V166.414H238.547ZM237.082 141.805C237.928 141.935 238.384 142.391 238.449 143.172V153.328C238.319 154.174 237.863 154.63 237.082 154.695H223.215V141.805H237.082ZM278.293 192V126.082H264.426V192H278.293ZM309.641 181.746H301.145C300.298 181.616 299.842 181.16 299.777 180.379V174.031C299.908 173.185 300.363 172.729 301.145 172.664H309.641V181.746ZM300.266 192.977C305.93 192.846 309.152 189.982 309.934 184.383L310.91 192H323.605V158.113C323.605 151.277 321.327 146.948 316.77 145.125C314.621 144.344 311.854 143.953 308.469 143.953L289.621 144.051V155.77L308.273 155.672C309.12 155.802 309.576 156.258 309.641 157.039V162.898H300.754C293.983 162.898 289.654 164.559 287.766 167.879C286.659 169.832 286.105 172.566 286.105 176.082V180.77C286.105 187.02 288.352 190.828 292.844 192.195C294.536 192.716 296.522 192.977 298.801 192.977H300.266ZM362.668 181.258H346.066C345.285 181.258 344.927 180.867 344.992 180.086C345.122 179.826 345.253 179.565 345.383 179.305L363.645 154.891C363.514 147.794 360.064 144.214 353.293 144.148H330.051V154.891H345.773C346.62 154.891 347.01 155.281 346.945 156.062C346.88 156.323 346.783 156.551 346.652 156.746L327.902 182.234C328.033 188.68 331.125 191.935 337.18 192H362.57L362.668 181.258ZM404.172 192.586V180.867H383.469C382.622 180.737 382.167 180.281 382.102 179.5V174.227H405.637V156.844C405.637 150.659 403.911 146.655 400.461 144.832C398.247 143.725 395.09 143.172 390.988 143.172H382.883C376.242 143.172 371.945 144.799 369.992 148.055C368.82 150.138 368.234 153.068 368.234 156.844V177.938C368.234 185.164 370.936 189.656 376.34 191.414C378.684 192.195 381.516 192.586 384.836 192.586H404.172ZM382.102 155.77C382.232 154.923 382.688 154.467 383.469 154.402H390.598C391.444 154.533 391.9 154.988 391.965 155.77V164.461H382.102V155.77Z" fill="#FF0909" fill-opacity="0.33"/>
</g>
<defs>
<clipPath id="clip0">
<rect width="514" height="297" fill="white"/>
</clipPath>
<clipPath id="clip1">
<rect width="282.346" height="306.206" fill="white" transform="matrix(-0.0973872 -0.995247 -0.995247 0.0973872 517 280.004)"/>
</clipPath>
</defs>
</svg>
