<svg height="512" viewBox="0 0 512 512" width="512" xmlns="http://www.w3.org/2000/svg"><g><g fill="#57a4ff"><path d="m476 72h-92v-56h-72v24h48v272h-208v-272h48v-24h-72v56h-92a19.994 19.994 0 0 0 -20 20v276h480v-276a19.994 19.994 0 0 0 -20-20z"/><path d="m312 416h-112l-16 56h144z"/><path d="m176 96h64v64h-64z"/><path d="m176 200h64v64h-64z"/></g><g fill="#004fac"><path d="m476 64h-84v-48a8 8 0 0 0 -8-8h-256a8 8 0 0 0 -8 8v48h-84a28.031 28.031 0 0 0 -28 28v304a28.031 28.031 0 0 0 28 28h153.39l-11.42 40h-33.97a8 8 0 0 0 -8 8v24a8 8 0 0 0 8 8h224a8 8 0 0 0 8-8v-24a8 8 0 0 0 -8-8h-33.97l-11.42-40h153.39a28.031 28.031 0 0 0 28-28v-304a28.031 28.031 0 0 0 -28-28zm-268-40h96v28a4 4 0 0 1 -4 4h-88a4 4 0 0 1 -4-4zm4 48h88a20.02 20.02 0 0 0 20-20v-4h32v256h-192v-256h32v4a20.02 20.02 0 0 0 20 20zm-76-48h56v8h-40a8 8 0 0 0 -8 8v272a8 8 0 0 0 8 8h208a8 8 0 0 0 8-8v-272a8 8 0 0 0 -8-8h-40v-8h56v304h-240zm224 456v8h-208v-8zm-165.39-16 11.42-40h99.94l11.42 40zm293.39-68a12.01 12.01 0 0 1 -12 12h-440a12.01 12.01 0 0 1 -12-12v-20h464zm0-36h-464v-268a12.01 12.01 0 0 1 12-12h84v256a8 8 0 0 0 8 8h256a8 8 0 0 0 8-8v-256h84a12.01 12.01 0 0 1 12 12z"/><path d="m168 96v64a8 8 0 0 0 8 8h64a8 8 0 0 0 8-8v-35.056l11.578-5.789a8 8 0 1 0 -7.156-14.31l-4.422 2.211v-11.056a8 8 0 0 0 -8-8h-64a8 8 0 0 0 -8 8zm16 8h48v11.056l-22.42 11.21-3.923-3.923a8 8 0 1 0 -11.314 11.314l8 8a8 8 0 0 0 9.235 1.5l20.422-10.213v19.056h-48z"/><path d="m252.422 208.845-4.422 2.211v-11.056a8 8 0 0 0 -8-8h-64a8 8 0 0 0 -8 8v64a8 8 0 0 0 8 8h64a8 8 0 0 0 8-8v-35.056l11.578-5.789a8 8 0 1 0 -7.156-14.31zm-20.422 47.155h-48v-48h48v11.056l-22.42 11.21-3.923-3.923a8 8 0 0 0 -11.314 11.314l8 8a8 8 0 0 0 9.235 1.5l20.422-10.213z"/><path d="m280 112h56a8 8 0 0 0 0-16h-56a8 8 0 0 0 0 16z"/><path d="m280 136h56a8 8 0 0 0 0-16h-56a8 8 0 0 0 0 16z"/><path d="m280 160h40a8 8 0 0 0 0-16h-40a8 8 0 0 0 0 16z"/><path d="m280 216h56a8 8 0 0 0 0-16h-56a8 8 0 0 0 0 16z"/><path d="m280 240h56a8 8 0 0 0 0-16h-56a8 8 0 0 0 0 16z"/><path d="m280 264h40a8 8 0 0 0 0-16h-40a8 8 0 0 0 0 16z"/></g></g></svg>